<svg xmlns="http://www.w3.org/2000/svg" xmlns:xlink="http://www.w3.org/1999/xlink" viewBox="0 0 872.16 872.16"><defs><style>.cls-1,.cls-6{stroke:#fff;stroke-miterlimit:10;}.cls-1{stroke-width:8px;}.cls-2{fill:#fefefe;}.cls-3{fill:url(#Degradado_sin_nombre_22);}.cls-4{fill:#fdfdfd;}.cls-5{fill:#e4e4e4;}.cls-6{fill:none;stroke-width:5px;}</style><radialGradient id="Degradado_sin_nombre_22" cx="859.8" cy="623.39" r="35.39" gradientUnits="userSpaceOnUse"><stop offset="0" stop-color="#8715ff"/><stop offset="1" stop-color="#982883"/></radialGradient></defs><g id="Capa_2" data-name="Capa 2"><circle class="cls-1" cx="436.08" cy="436.08" r="432.08"/></g><g id="Capa_1" data-name="Capa 1"><path class="cls-2" d="M701,481.2l0-1.4a6.54,6.54,0,0,1-1.69-3.12c-1.07-11.38.25-22.57,2.68-33.67,3.18-10,7.2-19.57,14.17-27.63,6.33-6.53,12.25-13.59,21.24-16.75,12.58-10,27.31-12.28,42.7-11.56a63,63,0,0,1,15.31,2.78,84.06,84.06,0,0,1,20.33,9.65c8.28,4.46,16.39,9.21,24.53,13.93,8,4.32,15.32,9.88,24.29,12.22,16.53,5.41,29.85-.44,39.77-17.5,1.81-3.11,3.2-6.44,5.14-9.48,4.58-9.66,6.89-20,9.51-30.3.86-2.29.83-4.77,1.41-7.11,2-9.28,2.68-18.71,3.5-28.12.23-2.63-.59-5.88,2.19-7.38,3-1.63,5,1.22,7,2.82,10.3,8.14,19.12,17.83,28.29,27.16a40.79,40.79,0,0,1,3.33,3.86,217.3,217.3,0,0,1,27.6,40.75c4.2,6.35,6.44,13.6,9.4,20.51.67,1.56,1.36,3.12,1.94,4.71,1.59,4.74,2.36,9.69,4,14.42,3.16,12.15,3.64,24.5,3,36.94a12.56,12.56,0,0,1-.35,2.11c-2,7.88-3.13,16-6.07,23.66-1.13,2.93-.44,5.38,2.56,6.82,7.78,3.72,14.63,9.06,22.39,12.81,4.55,3.14,9.73,5.15,14.37,8.12,10.06,6.94,21.71,11.33,31,19.59,3.24,2.88,6.46,5.67,8.93,9.24,1.06,1.35,2.22,2.6,3.19,4,16.72,24.57,18,50.31,5.89,77.07a11.05,11.05,0,0,1-1,1.79c-3,3.8-5.29,8.06-8.51,11.68-6.32,9.21-15.53,14.93-25,20.26-5.5,3.1-11,6.23-16.33,9.54-13.65,7.53-26.9,15.76-40.6,23.22-9.79,5.86-19.77,11.41-29.58,17.23-1,.65-2.15,1.19-3.25,1.73a33.33,33.33,0,0,0-6.9,4.08,16,16,0,0,1-1.6.94c-13.09,7-25.65,15-38.6,22.24q-2.38,1.51-4.86,2.85c-5.54,2.73-10.57,6.33-15.95,9.33-1.1.58-2.21,1.13-3.32,1.69-6.41,3.31-12.38,7.34-18.58,11-16.25,9.46-32.76,18.45-48.84,28.19-1.17.62-2.35,1.21-3.53,1.82-10.18,5.31-19.47,12.42-30.86,15.34-11.89,4-23.92,4.06-36,1.27-12.58-3.18-24.13-8.38-33.78-17.29-18.72-15.42-25.24-36.28-26.27-59.47-.33-7.22-.09-14.47-.08-21.71,0-1.2,0-2.39-.08-3.59-.19-12.19-.26-24.37,0-36.56,0-1.28,0-2.57,0-3.86-.37-9.94-.13-19.89-.13-29.84,0-2.73.16-5.46,2.19-7.62l0-1.41a8.09,8.09,0,0,1-2.14-5.54q-.4-14.17,0-28.35a8.25,8.25,0,0,1,2.1-5.56c0-.92,0-1.83,0-2.75a8.24,8.24,0,0,1-2.09-5.56q-.37-13.5,0-27a8.18,8.18,0,0,1,2.1-5.56v-2.75c-2.38-2.59-2.22-5.84-2.22-9,0-10.6-.39-21.2.81-31.76-1.7-11.07-.65-22.18-.62-33.28A7.24,7.24,0,0,1,701,481.2Z" transform="translate(-431.62 -156.73)"/><path d="M829.09,494.89c16.49-9.85,33.07-19.55,49.44-29.6s31-22.13,43.09-37.17a97.23,97.23,0,0,0,21.71-54.36c.87.26,1.65.25,1.93.63,17.66,23,33.34,47.06,39.34,76,4.44,21.43,2.51,41.86-11,60.1-3.09,4.19-.77,6.19,2.92,8.31,24.42,14,48.74,28.11,73.09,42.18,19.37,11.18,28.77,27.93,27.06,50.24-1.47,19.16-12.3,32.34-28.54,41.71q-86.93,50.13-173.77,100.37c-24,13.84-47.86,27.78-71.92,41.43-24.76,14-51.58,9.31-68.46-11.81a49.42,49.42,0,0,1-10.81-31.59c-.06-96.89-.22-193.79.08-290.69.12-37.4,41-62,74.27-44.64,22.11,11.52,43.31,24.77,65,37.08,3.87,2.2,2.73,3.55.2,5.83-10.77,9.73-21.42,19.59-32.07,29.46-1.63,1.51-3,3.3-4.49,5C825.71,496.61,827.56,495.44,829.09,494.89Z" transform="translate(-431.62 -156.73)"/><path class="cls-2" d="M846.8,603.67c-1.17-2.75-1.47-4.73,1.72-6.73,13.43-8.43,26.94-16.67,41.35-23.35,12-5.73,12-5.75,19.23,6.13,10,16.42,13.74,34,9.84,53-.48,1.62-1,3.23-1.35,4.89a11.47,11.47,0,0,1-.64,1.87c-1.6,2.18-1.88,4.72-1.86,7.33a12.39,12.39,0,0,1-1.58,4.77c-29,37.6-91.12,34-115.68-6.68-2-3.32-2.06-5.62.73-8.25,4.94-4.67,9.77-9.45,14.59-14.22,2.81-2.79,4.29-3.37,6.4,1.24" transform="translate(-431.62 -156.73)"/><path class="cls-3" d="M817.31,619.08c8.19,23.18,25.91,34.38,48.73,29.73,21-4.28,35.67-23.65,36.25-47.85-2.93-.1-3,2.92-4.19,4.51-8,10.57-18.21,15.26-30.73,12.75-11-2.2-15.13-9.81-18.85-21.28" transform="translate(-431.62 -156.73)"/><path class="cls-4" d="M906.43,686.49c30.34-20,45.82-48,44.91-84.53-.44-17.42-6.19-33.35-15.9-47.74-2.34-3.46-2.12-5,1.33-7.47,13.18-9.27,13.08-9.41,21.55,4.53,30,49.33,9.77,112.2-43.38,134.78-2.18.92-4.51,1.5-6.77,2.23C906.54,688.7,906.08,688,906.43,686.49Z" transform="translate(-431.62 -156.73)"/><path class="cls-4" d="M761.67,667.35c12.05,23.26,30.32,36.52,54.44,42.09,1.17.27,3-.21,3.19,1.74.17,1.71-1.46,2.13-2.55,2.8q-27.16,16.83-54.41,33.65C760.62,742.79,760.06,681.6,761.67,667.35Z" transform="translate(-431.62 -156.73)"/><path class="cls-5" d="M916.09,639.14c0-.45,0-.91.06-1.36a5.67,5.67,0,0,0,1.33-4.09c2.82-14.25.83-28-4-41.57-2.66-7.52-7.57-13.71-11.5-20.47-1.19-2-2.81-1.59-4.66-.73-2.41,1.11-4.54,3.11-7.5,2.67,6.07-4.4,13-7.25,19.4-11.06,3.39-2,5.08-1.16,7.12,1.81q23.24,33.78,7.38,71.5c-2.43,5.76-5.25,11.54-10.26,15.75,0-1.88,0-3.75-.08-5.62C914.49,643.76,915.16,641.4,916.09,639.14Z" transform="translate(-431.62 -156.73)"/><line class="cls-6" x1="270.16" y1="304.84" x2="270.16" y2="567.33"/></g></svg>